<svg id="Capa_1" data-name="Capa 1" xmlns="http://www.w3.org/2000/svg" xmlns:xlink="http://www.w3.org/1999/xlink" viewBox="0 0 1662 934.44"><defs><style>.cls-1{fill:url(#Degradado_sin_nombre_7);}.cls-2{fill:url(#Degradado_sin_nombre_9);}.cls-3{fill:url(#Degradado_sin_nombre_5);}.cls-4{fill:#345597;}.cls-11,.cls-12,.cls-13,.cls-4{fill-rule:evenodd;}.cls-5{fill:url(#Degradado_sin_nombre_3);}.cls-6{fill:url(#Degradado_sin_nombre_3-2);}.cls-7{fill:url(#Degradado_sin_nombre_3-3);}.cls-8{fill:url(#Degradado_sin_nombre_3-4);}.cls-9{fill:url(#Degradado_sin_nombre_3-5);}.cls-10{fill:none;}.cls-11{fill:url(#Degradado_sin_nombre_375);}.cls-13{fill:#1f3694;}</style><linearGradient id="Degradado_sin_nombre_7" x1="1474.29" y1="377.4" x2="1595.95" y2="471.15" gradientUnits="userSpaceOnUse"><stop offset="0" stop-color="#6bbc59"/><stop offset="0.07" stop-color="#60b05d"/><stop offset="0.21" stop-color="#439068"/><stop offset="0.39" stop-color="#155c79"/><stop offset="0.46" stop-color="#004481"/></linearGradient><linearGradient id="Degradado_sin_nombre_9" x1="1577.19" y1="492.49" x2="1751.02" y2="424.76" gradientUnits="userSpaceOnUse"><stop offset="0.26" stop-color="#004481"/><stop offset="0.31" stop-color="#084d7e"/><stop offset="0.41" stop-color="#1d6576"/><stop offset="0.52" stop-color="#408c69"/><stop offset="0.64" stop-color="#6bbc59"/></linearGradient><linearGradient id="Degradado_sin_nombre_5" x1="1632.04" y1="81.84" x2="1619.26" y2="557.95" gradientUnits="userSpaceOnUse"><stop offset="0.01" stop-color="#6bbc59"/><stop offset="0.29" stop-color="#6bbc59"/><stop offset="0.34" stop-color="#6bbc59"/><stop offset="0.4" stop-color="#428e68"/><stop offset="0.48" stop-color="#13597a"/><stop offset="0.52" stop-color="#004481"/></linearGradient><linearGradient id="Degradado_sin_nombre_3" x1="1411.1" y1="625.01" x2="1411.1" y2="356.19" gradientUnits="userSpaceOnUse"><stop offset="0" stop-color="#98681a"/><stop offset="0" stop-color="#d4d4d4"/><stop offset="0" stop-color="#fff"/><stop offset="0"/><stop offset="0" stop-color="#fff"/><stop offset="0.05" stop-color="#fff"/><stop offset="0.12" stop-color="#fff"/><stop offset="1" stop-color="#fff"/></linearGradient><linearGradient id="Degradado_sin_nombre_3-2" x1="935.44" y1="291.38" x2="935.44" y2="185.28" xlink:href="#Degradado_sin_nombre_3"/><linearGradient id="Degradado_sin_nombre_3-3" x1="911.19" y1="625.01" x2="911.19" y2="356.19" xlink:href="#Degradado_sin_nombre_3"/><linearGradient id="Degradado_sin_nombre_3-4" x1="430.66" y1="210.74" x2="430.66" y2="104.64" xlink:href="#Degradado_sin_nombre_3"/><linearGradient id="Degradado_sin_nombre_3-5" x1="388.04" y1="625.01" x2="388.04" y2="356.19" xlink:href="#Degradado_sin_nombre_3"/><linearGradient id="Degradado_sin_nombre_375" x1="903.96" y1="70.93" x2="889.2" y2="620.64" gradientUnits="userSpaceOnUse"><stop offset="0.13" stop-color="#26447a"/><stop offset="0.19" stop-color="#254378"/><stop offset="0.21" stop-color="#233f71"/><stop offset="0.23" stop-color="#203966"/><stop offset="0.24" stop-color="#1a2f55"/><stop offset="0.25" stop-color="#14233f"/><stop offset="0.26" stop-color="#0b1424"/><stop offset="0.27" stop-color="#010204"/><stop offset="0.27"/><stop offset="0.36" stop-color="#020305"/><stop offset="0.48" stop-color="#060b14"/><stop offset="0.6" stop-color="#0e192d"/><stop offset="0.74" stop-color="#192c50"/><stop offset="0.87" stop-color="#26457c"/><stop offset="0.88" stop-color="#27467e"/></linearGradient></defs><title>icon-jdl-actual-v2</title><path class="cls-1" d="M1474.29,408.72c1-1.25,2.17.69,3-.56a31.82,31.82,0,0,0-9.53-11.69c3.73,1.19,3.81-.16,2.82-2.77a89.8,89.8,0,0,1-4.83-19.49,162.2,162.2,0,0,1,18.67,20.48c28.08,36.67,42.62,78.26,45.35,124.21.16,2.74.26,5.47.32,8.2,6.79-.39,13.43-1,20-1.32C1540,464,1517.82,409.11,1469.75,366.61a70.77,70.77,0,0,1,25.24-5c.16-1.9-2-2.07-1.91-3.85,3.33,1,6.11,3.43,9.68,3.42,2.86,1.94,6.25,2.26,9.46,3.21,1.14-2.13-1.92-3.89-.23-5.88a52.43,52.43,0,0,0,14.9,13c.37-2.61-.13-4.61-.13-6.89l2.73,4c2.76,5.64,6.8,10.36,10.8,15.12a117.85,117.85,0,0,1,10.78,15.76c-1.7-12.46-4.21-24.66-9.75-36-2.67-5.67-5.66-11.11-10.72-15.09a17.57,17.57,0,0,0-7.75-5.69c-11.11-5.53-21.9-3.09-32.56,1.4a87.84,87.84,0,0,0-17.18,10c3.63-7.18,8.08-12.52,12.68-18.56l-6.41.51c6.38-3.95,13.09-7.27,19-12.36-2.32-1.67-5.25-.45-8.54-2.48,14.15-.44,25.4-8.47,38.67-8.68-8.17-6-29.59-9.75-42.14-4.67-14.9,6-21.7,18.49-25.86,33.11-1.48-1.11-.89-2.49-1-3.64-.31-3.21-.24-3.22-3.57-1.75a39.06,39.06,0,0,0,4.3-13.12c.42-3.09-1.19-1.5-3-1.27,5.57-7.08,6.71-15.92,12.18-22.66-10.13,4.12-18.53,10.3-23.41,20.26-5.12,10.46-3,20.75,2.65,31.5-11.68-7.33-22.45-14.12-35.94-13.28,10.9,2.3,19.83,8.26,28.33,15.14-9.07-3-18-3.57-26.46,1.59-8,4.85-13.18,12.09-16.93,20.72,6.33-5.1,14.52-6.39,21.09-11.09-.06,3.33,5.23,2.73,13.39-1.38,1.25,1.31-1.43,1.55-.29,3.08l8.57.49c-14.71,1.11-28.16,4.42-36.56,17.9-6.89,11.05-7.21,23.32-5.62,35.91,4.34-11.17,13.75-19.15,18.1-31.07.79,3-.1,5-.3,7.61,6.8-4,11.59-9.5,17.17-15.41l-3,7.13c5.61-1.87,10.63-4.41,17-5.7-12.72,10-22.68,20.78-21.22,37.57,1.16,13.46,8.62,23.66,18.17,32.7-4-11.7-.93-24.31-4.88-36l4.23,6.65A79.55,79.55,0,0,0,1447,401.2c1.64,1.31,1,3.44,2.46,5.35,1.78-6,3.36-11.68,6.91-17.88-.32,11.13,1.88,20.33,10.12,26.92,7.77,6.22,16.93,8.38,26.83,8.44C1486,420.09,1481.63,412.63,1474.29,408.72Z" transform="translate(-139 -80.64)"/><path class="cls-2" d="M1674.17,470.94c-.16-1.37-1.92-.46-2-1.75a27.49,27.49,0,0,1,12.31-4.4c-3.3-.79-2.75-1.83-.84-3.32a78.24,78.24,0,0,0,12.34-12.3,139.49,139.49,0,0,0-23,6.83c-37.26,14.61-66.73,38.94-89.41,71.82-1.35,2-2.65,3.94-3.93,5.94-4.85-3.34-9.48-6.78-14.23-10,35.23-41.3,76.36-72.08,131-82.06a61,61,0,0,0-16.41-15.06c.74-1.48,2.41-.64,3.15-2-2.91-.76-6.07-.2-8.7-1.8-3,.15-5.65-1.12-8.45-1.86.11-2.1,3.18-2,2.81-4.26a45.57,45.57,0,0,1-16.87,3c.9-2.11,2.17-3.37,3.2-5.06l-3.81,1.72c-4.58,2.94-9.69,4.63-14.79,6.38a100.76,100.76,0,0,0-15.06,6.85c6.86-8.49,14.2-16.41,23.42-22.37,4.52-3,9.18-5.71,14.71-6.39a15.17,15.17,0,0,1,8.3-.74c10.71.88,17.59,7.52,23.46,15.64a76.15,76.15,0,0,1,8.21,15.14c.54-7-.35-12.92-1-19.46l4.52,3.25c-2.95-5.79-6.42-11.26-8.5-17.69,2.47-.2,4.08,2,7.43,2-10.27-6.67-15-17.68-24.71-23.78,8.75-.8,26.28,6,33.28,15.43,8.32,11.16,7.74,23.46,4.24,36.17,1.6-.17,1.78-1.46,2.38-2.25,1.67-2.25,1.62-2.29,3.43.29a33.78,33.78,0,0,1,2.72-11.65c1.08-2.49,1.56-.58,2.78.39-.94-7.76,2.19-14.82,1.17-22.28,5.64,7.6,9.08,15.95,8.21,25.53-.91,10.06-7.08,16.76-16.12,22.19,11.94-.2,23-.42,32.56,6.26-9.1-3.18-18.39-2.76-27.77-1.47,8.07,1.83,14.9,5.41,18.87,13.05,3.73,7.18,4.3,14.88,3.2,23-2.39-6.62-7.87-11.25-10.62-17.68-1.45,2.49-5.1-.33-9.29-7-1.51.41.37,1.78-1.16,2.41l-6.57-3.48c10.39,7.42,18.85,15.91,19,29.68.12,11.29-5.16,20.53-12,29.16,1.81-10.23-1.56-20.37.58-31.17-1.94,1.89-2.18,3.77-3.2,5.78-3.24-6-4.3-12.24-5.77-19.13-.37,2.55-.64,4.38-1,6.64-3.31-3.9-5.89-8-10-11.85,4.93,13.11,7.43,25.59-1.19,37.4-6.92,9.46-17,13.69-28.15,16.1,8.24-6.86,11.62-17.62,19.81-24.54l-6.12,3a69.57,69.57,0,0,1,7.15-17.53c-1.81.23-2.32,2.09-4.23,2.86,1.4-5.28,2.76-10.17,2.93-16.37-4.77,8.41-10.54,14.25-19.6,15.44-8.55,1.13-16.29-1.38-23.64-5.77C1660.43,474.14,1667,470.55,1674.17,470.94Z" transform="translate(-139 -80.64)"/><path class="cls-3" d="M1590.36,273.59c3.18-.68,2.5,3.93,5.4,3a64.73,64.73,0,0,0,.27-30.79c4.31,6.74,6.2,4.71,8-.69,4.23-12.34,9.94-24,17.84-36.89a330.17,330.17,0,0,1,2.6,56.51c-3.71,94.18-35.11,178.45-90.75,254.17-3.31,4.51-6.72,8.92-10.18,13.29,11.17,8.26,22.4,15.93,33.2,24.06,64.69-110.11,101.41-225.3,81.35-354.73,17.59,5.49,32.44,14.29,46.2,25,2.73-2.78-.44-5.86,2-8.54,3.94,5.9,5.13,13.35,10.74,18,2,6.78,6.86,11.71,10.67,17.39,4.57-1.86,2.06-8.64,7.3-9.54a106.79,106.79,0,0,0,6.43,39.86c4-3.6,5.8-7.4,8.78-11-.3,3.26-.59,6.53-.89,9.79-3,12.46-2.82,25.14-2.76,37.82.06,13-1.55,25.82-3.61,38.8,13.59-21.78,25.54-44.2,31.69-69.3,3.21-12.38,5.6-24.83,2.84-37.66,0-6.74-1.17-13.2-4.76-19-10.23-23.19-30.35-33.41-53-40.26-12.27-3.73-24.91-5.58-40-6.67,15.06-6.53,29-9.13,44.11-12.6L1693.18,166c15.16,2.13,30,5.64,46,5.36-1.48-5.65-7.66-7.54-10.18-15,22.78,17.76,50.94,19.82,72,36.79-5-20.09-33.75-53.9-60.08-62.29-31.27-10-58.2.75-83.79,18.29-.86-3.68,1.86-5.07,3.18-7,3.7-5.46,3.82-5.38-3.32-7.42a79.9,79.9,0,0,0,23.85-15c4.69-4.3.09-3.91-3-5.88,18-3.86,31.29-16.26,48.68-19.71-21.28-6.73-42.52-8-63.17,1.3-21.69,9.74-31.84,28.62-36.93,52.91-8.78-26.74-16.83-51.44-39.11-67.71,14.11,17.83,20.36,38.82,24.75,60.72-10.33-16.58-23.58-29-43.63-32-18.88-2.81-36.47,1.82-53.59,10.47,16.57.25,31.12,8.89,47.56,10.1-4.43,5.14,4.67,11.09,22.83,15.28.26,3.69-4.25.57-4.46,4.45l12.81,12c-24.54-17.44-50-29.78-80.75-19.57-25.23,8.38-41.73,27.22-55.65,49.07,21.38-11.87,46.56-12.14,68.94-25.19-2.71,5.77-6.71,7.74-10.39,11.56,15.87,2.6,30.57.19,47-1.82l-14,7.26c11.25,4.37,22.45,6.95,34.14,13.23-33-.92-62.72,3.06-82.32,31.32-15.71,22.65-17.32,48.4-14.09,75,8.9-23.63,30.23-39.38,39.31-63-.61,4.86-1.23,9.73-2,16,13.35-8.61,23.73-18.42,33.51-29.34.88,4.19-2.86,6.76-3.11,11.61,10.67-7.18,20.51-13.95,34.17-19.07-15,17.07-23.56,34.38-19.21,55.48,4.09,19.89,15.66,35.21,31.12,48.22C1593.85,306.66,1596.79,289.31,1590.36,273.59Z" transform="translate(-139 -80.64)"/><path class="cls-4" d="M1402.51,635.21c-66.63,145-200,247.69-349.61,282.18-142.24,32.75-292.25-7.09-391.4-77.31C555.71,765.17,516.06,685.46,491.4,633.86l-53.58.23c4.26,12.39,10.3,24.19,15.76,35l43,75.06c13.39,9.34,84.85,126.91,244,187.69,164.8,62.94,371.95,43.82,514.06-65.54,83.74-64.46,144.82-139.25,181.44-231.12Z" transform="translate(-139 -80.64)"/><path class="cls-4" d="M488.07,747.25c-6.3-4.76-1.31.54-7.43-7.52l-38.21-72.89c-4.81-10.76-9.14-21.64-13.12-32.71l-31.78.16c65.3,186.24,221.85,321.54,404,365,261.77,62.41,531.3-64.5,643.75-300.34,6.86-14.44,18.47-39.8,27-63.72h-4.11c-169,415.85-673.79,474.85-937.16,172.31l-33.87-42.77c-5.69-7.21-1.08.88-5.84-8.1C488.07,750.65,489.12,753.87,488.07,747.25Z" transform="translate(-139 -80.64)"/><path class="cls-5" d="M1181.34,642.41h382.44q10.11-9.58,24.08-29.18T1614.11,574q12.26-19.57,19.9-34.42c5.07-9.87,7.35-14.78,6.77-14.78H1364.61l25.7-180.38H1223.92Z" transform="translate(-139 -80.64)"/><path class="cls-6" d="M1192.91,282.57q-9.75-44.41-39.6-73.17t-82.11-28.76h-379L675.37,298.25h520.14a42.12,42.12,0,0,0-.86-7.82C1194.12,288.11,1193.57,285.48,1192.91,282.57Z" transform="translate(-139 -80.64)"/><path class="cls-7" d="M1172.66,432.43a243.73,243.73,0,0,0,24.24-88H1023.55a80,80,0,0,1-1.78,19.6c-1.48,6.7-2.87,13.51-4.23,20.47a59.21,59.21,0,0,1-6.92,20.06,128,128,0,0,0-7.9,15.68q-8,19.15-27.41,37.9a243.3,243.3,0,0,1-44,33.52,275.73,275.73,0,0,1-50.48,24q-25.89,9.17-46.8,9.18H811.36L837.1,344.43h-169l-42.61,298H842.41q68,0,119.39-11.77t90.31-37q38.92-25.25,68.1-64.88T1172.66,432.43Z" transform="translate(-139 -80.64)"/><polygon class="cls-8" points="339.48 217.61 504.12 217.61 521.85 100 356.31 100 339.48 217.61"/><path class="cls-9" d="M139.35,642.41h292.7q55.82,0,90.32-15.25t55.17-44.45q20.61-29.13,31.16-72.3t18.35-98.88l9.68-67.1H471.19l-13.12,95a191,191,0,0,1-10.18,27,153.6,153.6,0,0,1-16.53,27.88,87.9,87.9,0,0,1-23.54,21.79,55.52,55.52,0,0,1-30.31,8.72h-176a322.7,322.7,0,0,0-36.2,57.48Q150.92,611.92,139.35,642.41Z" transform="translate(-139 -80.64)"/><path class="cls-10" d="M1181.33,642.41h382.45q10.11-9.58,24.08-29.18T1614.11,574q12.26-19.57,19.9-34.42c5.07-9.87,7.35-14.78,6.77-14.78H1364.61l25.7-180.38H1223.92Z" transform="translate(-139 -80.64)"/><path class="cls-10" d="M1192.91,282.57q-9.75-44.41-39.6-73.17t-82.11-28.76h-379L675.37,298.25h520.14a42.12,42.12,0,0,0-.86-7.82C1194.12,288.11,1193.57,285.48,1192.91,282.57Z" transform="translate(-139 -80.64)"/><path class="cls-10" d="M1172.66,432.43a243.73,243.73,0,0,0,24.24-88H1023.55a80,80,0,0,1-1.78,19.6c-1.48,6.7-2.87,13.51-4.23,20.47a59.21,59.21,0,0,1-6.92,20.06,128,128,0,0,0-7.9,15.68q-8,19.15-27.41,37.9a243.3,243.3,0,0,1-44,33.52,275.73,275.73,0,0,1-50.48,24q-25.89,9.17-46.8,9.18H811.36L837.1,344.43h-169l-42.61,298H842.41q68,0,119.39-11.77t90.31-37q38.92-25.25,68.1-64.88T1172.66,432.43Z" transform="translate(-139 -80.64)"/><polygon class="cls-10" points="339.48 217.61 504.12 217.61 521.85 100 356.31 100 339.48 217.61"/><path class="cls-10" d="M139.35,642.41h292.7q55.82,0,90.32-15.25t55.17-44.45q20.61-29.13,31.16-72.3t18.35-98.88l9.67-67.1H471.19l-13.12,95a191,191,0,0,1-10.18,27,153.6,153.6,0,0,1-16.53,27.88,87.9,87.9,0,0,1-23.54,21.79,55.52,55.52,0,0,1-30.31,8.72h-176a322.7,322.7,0,0,0-36.2,57.48Q150.92,611.92,139.35,642.41Z" transform="translate(-139 -80.64)"/><path class="cls-11" d="M1246.22,194l-15,104.8H1394c-4.75-16.45-12.07-35.93-16.75-40.61-6.85-6.85-26.87-14.37-26.87-14.37C1309.94,209.88,1270.69,198.07,1246.22,194Zm-64.84,451.66h382q10.22-9.85,24.35-30t26.53-40.31q12.4-20.11,20.13-35.37c5.13-10.14,7.43-15.2,6.85-15.2H1364.75l25.42-181.3h-166.3Zm14.42-362.72q-9.87-44.91-40-74t-83-29.08H689.52L672.45,298.8h526a42.94,42.94,0,0,0-.86-7.91C1197,288.54,1196.47,285.88,1195.8,282.94Zm-23.72,150.45a249,249,0,0,0,24.19-89H1022.39a81.33,81.33,0,0,1-1.77,19.64c-1.46,6.71-2.83,13.53-4.17,20.51a60,60,0,0,1-6.86,20.1,129.91,129.91,0,0,0-7.81,15.71q-7.86,19.2-27.11,38A240.79,240.79,0,0,1,931.14,492a271.4,271.4,0,0,1-49.93,24q-25.61,9.18-46.28,9.19H812.52L838,344.43H668.62L626.1,645.66H842.56q67.8,0,119.13-11.9t90.11-37.45q38.84-25.53,67.94-65.59T1172.08,433.39ZM477.45,298.8H643.94l17.93-118.93H494.48ZM139,645.66H432.28q55.68,0,90.11-15.42t55.05-44.93q20.56-29.46,31.09-73.09t18.32-100l9.65-67.83H470.68l-13,95.17a193.55,193.55,0,0,1-10.07,27.07,154.39,154.39,0,0,1-16.35,27.94A88.27,88.27,0,0,1,408,516.44a54.4,54.4,0,0,1-30,8.73H201.87a331.05,331.05,0,0,0-36.6,58.89Q150.7,614.42,139,645.66Z" transform="translate(-139 -80.64)"/><path class="cls-12" d="M1241.77,193.77s63.1,7.47,99.1,92.52l2.72,7.24s17.41-38.44,29.84-36.62c0,0-7.23-3.87-10.87-4.76s-7-.89-13.79-3.84-16.53-8.16-16.53-8.16-41.73-39.91-70.88-41.5l-7-5.89Z" transform="translate(-139 -80.64)"/><path class="cls-13" d="M1245.87,198.23s63.22-9.38,97.21,83.85c0,0,12-30.09,27.52-26.95s15.46,31,15.46,31,2.51-22.54-13.1-31.17-69-40.14-69-40.14S1276.46,195.36,1245.87,198.23Z" transform="translate(-139 -80.64)"/></svg>